<svg id="svg" xmlns="http://www.w3.org/2000/svg" xmlns:xlink="http://www.w3.org/1999/xlink" width="400" height="423.5470566179228" viewBox="0, 0, 400,423.5470566179228"><g id="svgg"><path id="path0" d="M145.499 7.362 C 145.280 7.404,145.102 7.522,145.102 7.623 C 145.102 7.729,145.272 7.763,145.499 7.702 C 145.717 7.643,145.955 7.594,146.028 7.593 C 146.101 7.592,146.161 7.511,146.161 7.414 C 146.161 7.317,146.101 7.248,146.028 7.261 C 145.955 7.275,145.717 7.320,145.499 7.362 M74.399 44.139 C 74.231 44.411,74.461 44.586,74.687 44.359 C 74.814 44.233,74.817 44.134,74.697 44.059 C 74.598 43.998,74.464 44.034,74.399 44.139 M262.570 66.593 C 262.524 66.714,262.506 71.410,262.531 77.028 L 262.577 87.242 265.578 88.005 C 270.980 89.378,276.374 91.142,281.724 93.284 L 284.466 94.382 284.512 80.598 C 284.537 73.017,284.519 66.714,284.473 66.593 C 284.407 66.420,282.053 66.372,273.522 66.372 C 264.991 66.372,262.636 66.420,262.570 66.593 M222.324 121.539 C 202.379 124.108,182.741 134.106,169.087 148.643 C 166.373 151.532,164.465 153.708,164.193 154.225 C 163.898 154.783,163.900 267.462,164.194 268.017 C 164.617 268.813,167.692 272.215,170.686 275.199 C 183.115 287.583,198.457 295.893,215.622 299.539 C 217.570 299.953,223.823 300.971,224.415 300.971 C 224.482 300.971,224.537 281.549,224.537 257.811 L 224.537 214.652 274.537 214.608 L 324.537 214.563 324.592 212.004 C 325.022 191.980,317.253 169.604,304.570 154.340 C 304.408 154.144,297.548 154.104,264.455 154.104 L 224.537 154.104 224.537 137.688 C 224.537 124.661,224.491 121.275,224.316 121.291 C 224.195 121.302,223.298 121.413,222.324 121.539 M85.393 164.613 C 85.320 164.691,85.260 169.666,85.260 175.669 L 85.260 186.584 97.490 186.584 L 109.720 186.584 109.951 185.339 C 110.814 180.671,113.118 172.589,115.124 167.194 C 115.605 165.898,115.972 164.810,115.939 164.776 C 115.805 164.643,85.516 164.482,85.393 164.613 M0.045 206.090 C 0.046 206.478,0.083 206.616,0.125 206.397 C 0.167 206.177,0.165 205.860,0.121 205.691 C 0.077 205.522,0.043 205.702,0.045 206.090 M0.000 209.974 C 0.000 210.313,0.079 210.591,0.177 210.591 C 0.274 210.591,0.353 210.313,0.353 209.974 C 0.353 209.634,0.274 209.356,0.177 209.356 C 0.079 209.356,0.000 209.634,0.000 209.974 M0.177 212.445 C 0.177 212.688,0.256 212.886,0.353 212.886 C 0.450 212.886,0.530 212.688,0.530 212.445 C 0.530 212.202,0.450 212.004,0.353 212.004 C 0.256 212.004,0.177 212.202,0.177 212.445 M0.353 214.916 C 0.353 215.159,0.432 215.357,0.530 215.357 C 0.627 215.357,0.706 215.159,0.706 214.916 C 0.706 214.673,0.627 214.475,0.530 214.475 C 0.432 214.475,0.353 214.673,0.353 214.916 M0.530 216.681 C 0.530 216.827,0.609 216.946,0.706 216.946 C 0.803 216.946,0.883 216.827,0.883 216.681 C 0.883 216.536,0.803 216.417,0.706 216.417 C 0.609 216.417,0.530 216.536,0.530 216.681 M85.260 271.255 L 85.260 282.316 106.991 282.210 C 118.943 282.152,128.760 282.066,128.808 282.019 C 128.855 281.972,128.580 281.471,128.198 280.905 C 124.861 275.963,120.092 267.147,117.640 261.386 L 117.132 260.194 101.196 260.194 L 85.260 260.194 85.260 271.255 M133.981 319.206 L 133.981 349.338 145.013 349.338 L 156.046 349.338 156.036 330.229 L 156.026 311.121 155.021 310.330 C 148.717 305.368,141.081 297.778,135.660 291.086 C 134.912 290.163,134.229 289.333,134.141 289.241 C 134.045 289.141,133.981 301.164,133.981 319.206 M286.584 326.862 C 280.940 329.474,273.710 332.071,267.270 333.801 L 266.491 334.010 274.154 341.674 L 281.817 349.338 290.234 349.338 C 299.175 349.338,300.453 349.254,302.817 348.508 C 305.036 347.808,308.158 346.074,308.660 345.261 C 308.792 345.047,289.548 325.671,289.233 325.701 C 289.135 325.710,287.944 326.233,286.584 326.862 " stroke="none" fill="#fbe062" fill-rule="evenodd"></path><path id="path1" d="M182.259 7.795 C 135.721 7.871,109.567 7.977,108.671 8.091 C 107.906 8.188,107.175 8.228,107.047 8.178 C 106.918 8.129,106.718 8.148,106.602 8.219 C 106.485 8.291,106.104 8.377,105.755 8.411 C 105.405 8.444,104.616 8.625,104.000 8.814 C 103.385 9.002,102.769 9.113,102.632 9.061 C 102.495 9.008,102.383 9.061,102.383 9.179 C 102.383 9.297,102.264 9.348,102.118 9.292 C 101.973 9.236,101.853 9.280,101.853 9.391 C 101.853 9.501,101.805 9.542,101.745 9.483 C 101.685 9.423,101.136 9.562,100.525 9.792 C 99.914 10.022,99.367 10.164,99.310 10.107 C 99.252 10.050,99.206 10.109,99.206 10.238 C 99.206 10.368,99.156 10.424,99.096 10.364 C 99.036 10.304,98.529 10.486,97.970 10.768 C 97.411 11.050,96.904 11.232,96.844 11.172 C 96.784 11.111,96.734 11.155,96.734 11.268 C 96.734 11.381,96.675 11.458,96.602 11.438 C 96.529 11.419,96.112 11.594,95.675 11.827 C 95.238 12.061,94.841 12.263,94.793 12.276 C 94.449 12.366,93.945 12.653,93.653 12.924 C 93.463 13.100,93.227 13.217,93.127 13.184 C 93.028 13.151,92.786 13.277,92.590 13.464 C 92.226 13.811,90.448 15.000,90.290 15.003 C 90.242 15.004,90.058 15.143,89.881 15.313 C 89.705 15.483,89.259 15.861,88.892 16.152 C 88.525 16.443,87.904 17.017,87.512 17.427 C 87.121 17.837,86.745 18.138,86.677 18.097 C 86.526 18.003,85.156 19.430,85.214 19.621 C 85.237 19.696,84.942 20.010,84.557 20.319 C 84.173 20.628,83.899 20.945,83.947 21.024 C 83.996 21.103,83.835 21.299,83.589 21.460 C 83.343 21.621,83.142 21.856,83.142 21.983 C 83.142 22.109,83.075 22.239,82.993 22.271 C 82.911 22.304,82.533 22.767,82.154 23.301 C 81.775 23.835,81.346 24.413,81.200 24.586 C 81.055 24.760,80.962 24.949,80.995 25.008 C 81.027 25.067,80.983 25.164,80.897 25.223 C 80.735 25.335,79.882 26.676,79.874 26.831 C 79.863 27.045,79.168 28.067,79.034 28.067 C 78.952 28.067,78.932 28.144,78.990 28.238 C 79.048 28.331,78.918 28.748,78.702 29.164 C 78.485 29.580,78.289 30.032,78.266 30.168 C 78.242 30.304,78.158 30.462,78.079 30.521 C 78.000 30.579,77.907 30.784,77.874 30.976 C 77.840 31.168,77.660 31.625,77.473 31.991 C 77.286 32.357,77.190 32.657,77.259 32.657 C 77.328 32.657,77.230 32.773,77.042 32.916 C 76.780 33.114,76.761 33.177,76.964 33.183 C 77.120 33.188,77.156 33.245,77.052 33.321 C 76.955 33.393,76.876 33.530,76.876 33.628 C 76.876 34.055,76.152 36.008,75.993 36.012 C 75.896 36.014,75.936 36.094,76.081 36.190 C 76.276 36.318,76.291 36.399,76.138 36.499 C 76.024 36.573,75.943 36.752,75.959 36.896 C 75.975 37.040,75.812 38.071,75.596 39.188 C 75.380 40.305,75.201 41.377,75.198 41.571 C 75.196 41.765,75.159 42.361,75.116 42.895 C 75.073 43.429,75.035 47.212,75.030 51.301 L 75.022 58.736 73.651 58.911 C 71.545 59.180,69.157 61.025,68.790 62.665 C 68.736 62.908,68.609 63.425,68.507 63.813 C 68.254 64.782,68.254 88.263,68.507 89.232 C 68.609 89.620,68.738 90.137,68.795 90.380 C 68.933 90.971,70.388 92.851,70.708 92.851 C 70.848 92.851,70.962 92.916,70.962 92.995 C 70.962 93.312,72.363 93.890,73.654 94.104 L 75.022 94.332 75.022 96.747 L 75.022 99.162 74.095 99.248 C 71.667 99.473,69.587 101.040,68.762 103.266 C 68.259 104.625,68.106 128.095,68.589 129.958 C 69.258 132.540,71.349 134.372,73.963 134.666 L 74.934 134.775 75.022 262.489 L 75.110 390.203 75.508 390.875 C 75.726 391.245,75.905 391.652,75.905 391.779 C 75.905 392.104,77.487 394.704,77.685 394.704 C 77.774 394.704,77.846 394.819,77.846 394.958 C 77.846 395.098,78.085 395.473,78.376 395.792 C 78.667 396.111,78.906 396.454,78.906 396.555 C 78.906 396.656,79.124 396.974,79.391 397.261 C 79.658 397.549,79.878 397.827,79.879 397.877 C 79.881 397.928,80.079 398.175,80.320 398.426 C 80.562 398.677,80.997 399.188,81.289 399.562 C 81.954 400.416,85.284 403.707,85.483 403.707 C 85.564 403.707,85.814 403.906,86.039 404.148 C 86.264 404.391,86.538 404.590,86.649 404.590 C 86.759 404.590,86.849 404.652,86.849 404.729 C 86.849 404.805,87.282 405.130,87.811 405.451 C 88.339 405.771,88.796 406.100,88.826 406.181 C 88.855 406.262,88.998 406.354,89.144 406.386 C 89.289 406.417,89.448 406.491,89.497 406.551 C 89.771 406.884,95.012 409.570,95.499 409.626 C 95.644 409.643,96.094 409.825,96.498 410.031 C 96.902 410.237,97.577 410.491,97.998 410.594 C 98.948 410.827,99.007 410.845,99.596 411.087 C 99.859 411.195,100.256 411.309,100.479 411.339 C 100.701 411.370,100.962 411.443,101.059 411.502 C 101.813 411.961,108.903 412.009,201.236 412.183 L 296.999 412.362 298.297 412.001 C 299.484 411.670,299.843 411.592,300.883 411.438 C 301.077 411.409,301.275 411.342,301.324 411.288 C 301.518 411.074,303.905 410.323,304.192 410.386 C 304.265 410.402,304.325 410.345,304.325 410.260 C 304.325 410.079,305.296 409.650,305.786 409.614 C 305.971 409.600,306.175 409.507,306.239 409.408 C 306.378 409.191,307.855 408.422,307.855 408.567 C 307.855 408.622,308.120 408.465,308.445 408.218 C 308.769 407.971,309.086 407.821,309.151 407.886 C 309.215 407.950,309.267 407.910,309.267 407.796 C 309.267 407.683,309.401 407.590,309.565 407.590 C 309.729 407.590,310.026 407.446,310.227 407.270 C 310.427 407.094,311.144 406.598,311.819 406.167 C 312.494 405.736,313.219 405.225,313.430 405.031 C 313.641 404.837,314.192 404.360,314.654 403.972 C 316.479 402.438,317.525 401.445,318.623 400.203 C 319.254 399.490,319.870 398.800,319.991 398.671 C 320.113 398.542,320.212 398.371,320.212 398.291 C 320.212 398.211,320.450 397.920,320.741 397.646 C 321.033 397.371,321.271 397.040,321.271 396.911 C 321.271 396.781,321.337 396.649,321.418 396.617 C 321.756 396.482,323.479 393.596,324.446 391.547 L 324.978 390.419 324.978 360.247 L 324.978 330.076 331.867 336.971 C 335.656 340.763,338.814 343.866,338.884 343.866 C 339.035 343.865,345.055 337.900,346.658 336.161 C 347.272 335.496,348.304 334.382,348.953 333.687 C 349.602 332.991,350.410 332.090,350.750 331.683 C 351.090 331.277,351.567 330.715,351.809 330.434 C 352.052 330.154,352.449 329.683,352.692 329.388 C 352.935 329.093,353.312 328.680,353.530 328.471 C 353.749 328.263,353.928 328.006,353.928 327.901 C 353.928 327.796,354.086 327.611,354.281 327.490 C 354.475 327.369,354.634 327.151,354.634 327.006 C 354.634 326.862,354.753 326.743,354.898 326.743 C 355.044 326.743,355.163 326.660,355.163 326.559 C 355.163 326.457,355.360 326.177,355.601 325.937 C 355.841 325.696,356.030 325.453,356.021 325.396 C 356.012 325.339,356.252 325.030,356.555 324.709 C 356.857 324.388,357.105 324.048,357.105 323.953 C 357.105 323.858,357.224 323.734,357.370 323.678 C 357.515 323.623,357.635 323.464,357.635 323.325 C 357.635 323.187,357.754 323.028,357.899 322.972 C 358.045 322.916,358.164 322.749,358.164 322.600 C 358.164 322.452,358.246 322.330,358.346 322.330 C 358.446 322.330,358.579 322.197,358.642 322.035 C 358.704 321.872,358.880 321.608,359.033 321.447 C 359.550 320.905,360.106 320.210,360.106 320.106 C 360.106 320.050,360.305 319.792,360.549 319.534 C 360.793 319.276,360.985 318.994,360.975 318.908 C 360.966 318.821,361.030 318.702,361.118 318.643 C 361.206 318.583,361.608 318.084,362.012 317.533 C 362.416 316.982,362.828 316.480,362.929 316.417 C 363.030 316.355,363.074 316.242,363.027 316.165 C 362.980 316.089,363.135 315.845,363.372 315.622 C 363.608 315.400,363.760 315.150,363.709 315.067 C 363.657 314.984,363.700 314.916,363.802 314.916 C 363.905 314.916,363.989 314.797,363.989 314.651 C 363.989 314.506,364.049 314.384,364.122 314.381 C 364.195 314.378,364.403 314.171,364.585 313.922 L 364.915 313.468 351.081 299.631 C 343.472 292.020,337.202 285.792,337.148 285.791 C 337.094 285.791,336.657 286.326,336.178 286.981 C 334.411 289.399,331.356 293.127,328.694 296.117 C 324.178 301.188,315.924 308.700,310.184 312.963 L 308.894 313.921 311.817 316.848 L 314.740 319.774 314.740 326.766 C 314.740 332.243,314.681 334.093,314.470 335.303 C 313.240 342.355,307.429 348.104,300.452 349.169 C 299.686 349.286,265.386 349.330,199.206 349.298 L 99.117 349.250 97.544 348.752 C 91.709 346.905,87.661 342.853,85.835 337.032 L 85.349 335.481 85.349 208.032 L 85.349 80.583 85.758 79.082 C 87.448 72.893,91.870 68.555,98.235 66.841 L 99.647 66.461 200.000 66.461 L 300.353 66.461 301.798 66.847 C 308.021 68.508,312.416 72.864,314.238 79.174 L 314.644 80.583 314.698 96.671 L 314.752 112.759 317.526 115.178 C 319.052 116.508,321.346 118.621,322.625 119.875 C 323.904 121.128,325.007 122.154,325.076 122.154 C 325.224 122.154,325.050 44.598,324.900 43.425 C 324.844 42.988,324.760 42.154,324.714 41.571 C 324.667 40.989,324.516 39.924,324.378 39.206 C 324.240 38.488,324.168 37.793,324.218 37.661 C 324.268 37.530,324.202 37.422,324.070 37.420 C 323.873 37.418,323.872 37.391,324.064 37.269 C 324.255 37.148,324.248 37.071,324.029 36.852 C 323.880 36.703,323.796 36.545,323.842 36.499 C 323.888 36.454,323.729 35.835,323.488 35.125 C 323.248 34.415,323.092 33.768,323.143 33.687 C 323.193 33.606,323.152 33.539,323.052 33.539 C 322.952 33.539,322.916 33.420,322.972 33.274 C 323.030 33.125,322.976 33.010,322.849 33.010 C 322.725 33.010,322.673 32.962,322.731 32.903 C 322.790 32.844,322.649 32.367,322.418 31.843 C 322.186 31.320,322.039 30.891,322.092 30.891 C 322.144 30.891,321.946 30.463,321.651 29.940 C 321.355 29.417,321.162 28.941,321.222 28.881 C 321.281 28.822,321.224 28.773,321.094 28.773 C 320.965 28.773,320.908 28.725,320.967 28.666 C 321.026 28.606,320.871 28.236,320.623 27.843 C 320.375 27.451,320.158 27.032,320.141 26.913 C 320.123 26.794,319.894 26.414,319.631 26.070 C 319.368 25.725,319.153 25.358,319.153 25.254 C 319.153 25.151,319.069 25.066,318.966 25.066 C 318.863 25.066,318.820 24.999,318.871 24.916 C 318.922 24.834,318.808 24.599,318.617 24.394 C 318.426 24.189,318.270 23.946,318.270 23.853 C 318.270 23.760,318.211 23.657,318.138 23.625 C 317.974 23.552,316.986 22.242,317.095 22.242 C 317.190 22.242,316.287 21.271,313.986 18.900 C 313.037 17.922,312.192 17.123,312.108 17.123 C 312.025 17.123,311.826 16.924,311.667 16.681 C 311.508 16.439,311.278 16.240,311.156 16.240 C 311.034 16.240,310.708 15.982,310.431 15.666 C 310.154 15.351,309.879 15.091,309.818 15.089 C 309.602 15.082,308.561 14.396,308.561 14.260 C 308.561 14.184,308.477 14.122,308.373 14.122 C 308.269 14.122,307.932 13.935,307.623 13.706 C 307.314 13.477,306.703 13.100,306.267 12.867 C 305.830 12.635,305.432 12.405,305.384 12.357 C 305.335 12.308,305.193 12.247,305.068 12.222 C 304.942 12.196,304.525 11.977,304.141 11.734 C 303.757 11.491,303.442 11.335,303.442 11.386 C 303.442 11.437,302.966 11.238,302.383 10.944 C 301.801 10.650,301.323 10.470,301.321 10.545 C 301.320 10.619,301.252 10.575,301.171 10.446 C 301.089 10.318,300.832 10.189,300.600 10.160 C 300.367 10.131,299.759 9.939,299.250 9.734 C 298.740 9.529,298.323 9.409,298.323 9.468 C 298.323 9.527,298.192 9.466,298.031 9.333 C 297.871 9.200,297.712 9.111,297.678 9.135 C 297.644 9.159,297.597 9.173,297.573 9.164 C 297.549 9.156,297.370 9.126,297.176 9.096 C 296.981 9.067,296.108 8.865,295.234 8.647 C 292.926 8.071,293.647 8.094,273.433 7.970 C 263.191 7.907,254.731 7.815,254.634 7.765 C 254.537 7.716,221.968 7.729,182.259 7.795 M326.734 123.979 C 327.068 124.334,327.367 124.625,327.397 124.625 C 327.557 124.625,326.999 123.961,326.594 123.670 C 326.222 123.403,326.251 123.467,326.734 123.979 M328.495 125.919 C 328.945 126.414,329.042 126.475,329.032 126.258 C 329.029 126.185,328.811 125.973,328.547 125.786 L 328.067 125.448 328.495 125.919 M329.554 127.160 C 329.789 127.415,330.015 127.590,330.057 127.549 C 330.183 127.422,329.923 127.110,329.514 126.897 C 329.144 126.705,329.146 126.717,329.554 127.160 M330.627 128.332 C 330.731 128.526,330.905 128.685,331.013 128.685 C 331.122 128.685,331.067 128.526,330.891 128.332 C 330.716 128.138,330.542 127.979,330.505 127.979 C 330.468 127.979,330.523 128.138,330.627 128.332 " stroke="none" fill="#425162" fill-rule="evenodd"></path><path id="path2" d="M180.759 66.550 C 135.759 66.600,98.742 66.707,98.500 66.788 C 98.257 66.869,97.542 67.098,96.911 67.296 C 90.837 69.208,86.238 74.784,85.445 81.196 C 85.321 82.199,85.260 96.167,85.260 123.649 L 85.260 164.607 94.481 164.519 L 103.701 164.431 104.463 162.577 C 122.926 117.651,166.050 87.070,214.740 84.374 C 220.142 84.075,242.353 84.253,245.896 84.624 C 251.491 85.209,258.860 86.361,261.695 87.094 L 262.577 87.322 262.577 76.847 C 262.577 71.086,262.577 66.392,262.577 66.416 C 262.577 66.440,225.759 66.500,180.759 66.550 M284.512 80.461 L 284.558 94.462 285.836 95.018 C 294.712 98.884,305.657 105.533,313.327 111.720 L 314.475 112.646 314.520 96.773 L 314.565 80.900 314.122 79.154 C 312.594 73.131,307.986 68.515,301.984 66.996 C 300.296 66.568,300.098 66.558,292.363 66.510 L 284.466 66.461 284.512 80.461 M228.332 120.934 C 227.264 121.013,225.973 121.126,225.463 121.187 L 224.537 121.296 224.537 137.700 L 224.537 154.104 257.639 154.104 L 290.740 154.104 289.821 152.913 C 284.611 146.162,279.866 141.263,273.345 135.901 C 267.298 130.929,259.175 125.955,251.809 122.713 C 248.569 121.286,236.241 120.352,228.332 120.934 M223.169 121.393 C 223.338 121.437,223.617 121.437,223.786 121.393 C 223.956 121.348,223.817 121.312,223.477 121.312 C 223.138 121.312,222.999 121.348,223.169 121.393 M190.071 132.140 C 189.411 132.498,189.451 132.647,190.115 132.304 C 190.406 132.153,190.644 131.992,190.644 131.946 C 190.644 131.832,190.625 131.839,190.071 132.140 M174.139 143.619 L 172.727 144.956 174.184 143.680 C 175.476 142.547,175.754 142.271,175.596 142.280 C 175.571 142.281,174.916 142.884,174.139 143.619 M170.075 147.440 L 168.844 148.720 170.124 147.489 C 171.312 146.346,171.484 146.161,171.354 146.161 C 171.328 146.161,170.752 146.737,170.075 147.440 M167.601 150.088 L 166.726 151.015 167.652 150.139 C 168.162 149.657,168.579 149.240,168.579 149.212 C 168.579 149.081,168.415 149.227,167.601 150.088 M166.008 151.853 L 165.490 152.427 166.064 151.909 C 166.379 151.624,166.637 151.365,166.637 151.335 C 166.637 151.199,166.492 151.319,166.008 151.853 M162.057 156.870 C 137.889 189.515,137.939 233.075,162.182 265.554 C 164.178 268.228,164.498 268.621,164.188 268.017 C 163.918 267.492,163.903 154.773,164.172 154.269 C 164.568 153.529,164.150 154.043,162.057 156.870 M105.914 164.645 C 111.504 164.769,116.152 164.772,116.152 164.651 C 116.152 164.579,113.352 164.536,109.929 164.557 C 106.507 164.578,104.700 164.618,105.914 164.645 M313.769 168.226 C 313.919 168.517,314.082 168.756,314.131 168.756 C 314.179 168.756,314.096 168.517,313.945 168.226 C 313.795 167.935,313.632 167.696,313.583 167.696 C 313.535 167.696,313.618 167.935,313.769 168.226 M85.260 223.389 L 85.260 260.194 101.280 260.152 C 110.090 260.129,114.436 260.089,110.938 260.062 L 104.576 260.013 104.288 259.265 C 104.129 258.854,103.648 257.604,103.218 256.487 C 95.054 235.272,92.730 210.325,96.878 188.438 L 97.180 186.849 103.532 186.757 C 108.719 186.683,107.626 186.658,97.573 186.625 L 85.260 186.584 85.260 223.389 M323.783 199.117 C 323.783 199.457,323.820 199.596,323.864 199.426 C 323.908 199.256,323.908 198.978,323.864 198.808 C 323.820 198.639,323.783 198.778,323.783 199.117 M324.316 203.972 C 324.318 204.360,324.354 204.498,324.397 204.279 C 324.439 204.059,324.437 203.741,324.393 203.573 C 324.349 203.404,324.314 203.583,324.316 203.972 M324.501 206.708 C 324.501 207.242,324.534 207.460,324.575 207.193 C 324.615 206.926,324.615 206.489,324.575 206.222 C 324.534 205.955,324.501 206.174,324.501 206.708 M324.666 211.121 C 324.666 211.461,324.702 211.600,324.747 211.430 C 324.791 211.260,324.791 210.982,324.747 210.812 C 324.702 210.642,324.666 210.781,324.666 211.121 M224.537 257.792 L 224.537 300.933 224.934 301.031 C 229.635 302.201,248.366 301.108,252.027 299.450 C 268.580 291.954,282.449 280.324,292.554 265.466 C 302.324 251.100,308.187 233.934,309.051 217.167 L 309.180 214.651 266.858 214.651 L 224.537 214.651 224.537 257.792 M167.432 272.021 C 167.811 272.410,168.161 272.727,168.209 272.727 C 168.258 272.727,167.987 272.410,167.608 272.021 C 167.229 271.633,166.879 271.315,166.830 271.315 C 166.782 271.315,167.052 271.633,167.432 272.021 M170.079 274.846 C 170.852 275.622,171.523 276.258,171.572 276.258 C 171.620 276.258,171.028 275.622,170.256 274.846 C 169.484 274.069,168.812 273.433,168.764 273.433 C 168.715 273.433,169.307 274.069,170.079 274.846 M173.338 277.891 C 174.069 278.670,174.228 278.810,174.228 278.678 C 174.228 278.649,173.850 278.272,173.389 277.839 L 172.551 277.052 173.338 277.891 M122.065 282.092 C 118.279 282.156,108.449 282.220,100.221 282.234 L 85.260 282.259 85.262 307.635 C 85.263 323.831,85.329 333.584,85.444 334.598 C 86.297 342.068,92.607 348.309,100.159 349.151 C 101.222 349.269,107.746 349.338,117.910 349.338 L 133.981 349.338 133.981 319.231 C 133.981 296.518,134.031 289.154,134.184 289.249 C 134.312 289.328,134.340 289.297,134.260 289.168 C 133.878 288.550,133.804 289.648,133.804 295.903 L 133.804 302.641 132.114 300.967 C 127.208 296.111,121.413 289.207,117.595 283.672 L 116.682 282.348 122.860 282.301 C 126.776 282.272,129.038 282.191,129.038 282.081 C 129.038 281.985,129.018 281.922,128.994 281.941 C 128.970 281.959,125.852 282.028,122.065 282.092 M191.880 290.990 C 191.880 291.039,192.198 291.241,192.586 291.439 C 192.974 291.637,193.292 291.759,193.292 291.711 C 193.292 291.662,192.974 291.460,192.586 291.262 C 192.198 291.064,191.880 290.942,191.880 290.990 M140.335 296.613 C 140.335 296.643,140.594 296.902,140.909 297.187 L 141.483 297.705 140.964 297.132 C 140.481 296.597,140.335 296.477,140.335 296.613 M144.212 300.662 C 144.943 301.441,145.102 301.581,145.102 301.449 C 145.102 301.421,144.724 301.043,144.263 300.610 L 143.425 299.823 144.212 300.662 M148.279 304.590 C 148.608 304.929,148.917 305.207,148.966 305.207 C 149.015 305.207,148.785 304.929,148.455 304.590 C 148.126 304.250,147.817 303.972,147.768 303.972 C 147.720 303.972,147.950 304.250,148.279 304.590 M156.087 330.229 L 156.046 349.338 218.932 349.338 L 281.818 349.338 274.139 341.664 L 266.461 333.991 264.784 334.418 C 260.794 335.435,254.143 336.665,250.044 337.144 C 243.069 337.958,243.222 337.952,228.508 337.952 C 214.563 337.952,213.641 337.924,207.944 337.322 C 190.387 335.468,171.826 329.292,157.240 320.450 L 156.229 319.837 156.178 315.479 C 156.150 313.082,156.109 319.720,156.087 330.229 M307.414 314.942 C 303.705 317.664,296.361 322.089,291.746 324.384 L 289.317 325.591 299.059 335.334 C 307.963 344.239,308.780 345.105,308.558 345.398 C 308.425 345.575,308.774 345.282,309.335 344.748 C 311.416 342.765,313.023 340.190,313.963 337.335 L 314.457 335.834 314.517 327.714 L 314.577 319.594 311.702 316.750 L 308.826 313.905 307.414 314.942 M341.490 341.481 C 341.202 341.716,341.004 341.942,341.048 341.982 C 341.093 342.023,341.368 341.828,341.659 341.549 C 342.302 340.933,342.207 340.895,341.490 341.481 " stroke="none" fill="#73cb8c" fill-rule="evenodd"></path><path id="path3" d="M119.475 7.899 C 124.070 7.926,131.537 7.926,136.068 7.899 C 140.600 7.873,136.840 7.852,127.714 7.852 C 118.588 7.852,114.880 7.873,119.475 7.899 M264.047 7.899 C 268.642 7.926,276.109 7.926,280.640 7.899 C 285.172 7.873,281.412 7.852,272.286 7.852 C 263.160 7.852,259.452 7.873,264.047 7.899 M141.100 66.505 C 163.414 66.530,199.875 66.530,222.124 66.505 C 244.373 66.480,226.117 66.460,181.553 66.460 C 136.990 66.460,118.786 66.480,141.100 66.505 M288.406 66.505 C 290.475 66.533,293.811 66.533,295.819 66.505 C 297.828 66.476,296.134 66.453,292.056 66.453 C 287.979 66.453,286.336 66.476,288.406 66.505 M314.606 97.101 L 314.563 112.736 315.049 113.164 L 315.534 113.592 315.138 113.141 L 314.742 112.689 314.695 97.077 L 314.649 81.465 314.606 97.101 M214.034 84.394 C 165.707 87.388,123.473 117.395,104.675 162.094 L 103.653 164.523 109.918 164.477 L 116.183 164.431 117.022 162.401 C 134.812 119.349,175.865 88.964,221.977 84.721 C 226.676 84.289,226.629 84.247,221.447 84.249 C 218.632 84.251,215.296 84.316,214.034 84.394 M229.126 108.212 C 178.107 111.307,137.958 148.943,132.044 199.219 C 125.654 253.544,163.038 303.509,216.950 312.696 C 271.891 322.060,324.367 286.010,335.296 231.395 C 344.551 185.145,321.397 138.732,278.807 118.160 C 277.151 117.360,275.403 116.550,274.924 116.359 C 274.444 116.169,273.217 115.678,272.198 115.268 C 259.250 110.061,242.872 107.378,229.126 108.212 M320.830 118.270 C 321.308 118.756,321.739 119.153,321.787 119.153 C 321.836 119.153,321.484 118.756,321.006 118.270 C 320.528 117.785,320.097 117.387,320.049 117.387 C 320.000 117.387,320.352 117.785,320.830 118.270 M239.894 120.915 C 249.043 121.579,257.869 123.349,264.519 125.853 C 267.854 127.109,269.378 127.722,271.151 128.519 C 322.311 151.550,340.469 214.634,309.403 261.413 C 299.994 275.582,284.292 288.610,269.638 294.408 C 269.153 294.600,268.120 295.011,267.343 295.322 C 247.138 303.395,222.616 303.528,202.118 295.677 C 155.125 277.676,131.839 224.645,150.341 177.758 C 162.733 146.354,192.802 123.697,225.419 121.187 C 227.312 121.041,229.179 120.894,229.568 120.861 C 231.202 120.721,237.690 120.755,239.894 120.915 M326.831 124.272 C 327.971 125.421,328.155 125.586,328.155 125.460 C 328.155 125.349,325.838 123.036,325.727 123.036 C 325.660 123.036,326.157 123.592,326.831 124.272 M329.568 127.328 C 329.568 127.358,329.826 127.617,330.141 127.902 L 330.715 128.420 330.196 127.846 C 329.713 127.312,329.568 127.192,329.568 127.328 M331.156 129.126 C 331.384 129.369,331.600 129.568,331.637 129.568 C 331.783 129.568,331.056 128.696,330.905 128.690 C 330.815 128.687,330.928 128.883,331.156 129.126 M332.332 130.538 C 332.697 130.975,333.024 131.333,333.058 131.333 C 333.092 131.333,332.863 130.975,332.549 130.538 C 332.236 130.102,331.909 129.744,331.824 129.744 C 331.738 129.744,331.967 130.102,332.332 130.538 M97.177 186.981 C 97.015 187.454,96.528 190.343,96.114 193.292 C 93.118 214.600,95.602 236.697,103.218 256.487 C 103.648 257.604,104.129 258.855,104.288 259.267 L 104.577 260.018 110.806 260.018 C 114.232 260.018,117.034 259.990,117.034 259.957 C 117.034 259.924,116.549 258.673,115.956 257.177 C 107.682 236.316,105.291 212.377,109.191 189.442 C 109.427 188.053,109.620 186.881,109.620 186.838 C 109.620 186.627,97.250 186.770,97.177 186.981 M116.793 282.480 C 119.176 286.439,125.853 294.564,131.237 300.057 L 133.716 302.586 133.804 295.733 L 133.892 288.879 132.304 286.744 C 131.430 285.570,130.357 284.082,129.921 283.438 L 129.126 282.268 122.893 282.264 C 117.953 282.260,116.688 282.305,116.793 282.480 M326.920 297.882 C 326.491 298.319,326.180 298.676,326.228 298.676 C 326.277 298.676,326.667 298.319,327.096 297.882 C 327.525 297.445,327.836 297.087,327.788 297.087 C 327.739 297.087,327.348 297.445,326.920 297.882 M320.918 303.883 C 320.489 304.320,320.178 304.678,320.227 304.678 C 320.275 304.678,320.666 304.320,321.094 303.883 C 321.523 303.447,321.834 303.089,321.786 303.089 C 321.737 303.089,321.347 303.447,320.918 303.883 M319.053 305.605 L 318.535 306.178 319.109 305.660 C 319.643 305.177,319.763 305.031,319.627 305.031 C 319.597 305.031,319.338 305.289,319.053 305.605 M156.222 315.599 L 156.222 319.833 157.237 320.448 C 171.845 329.303,190.796 335.599,208.032 337.324 C 209.100 337.431,210.768 337.602,211.739 337.704 C 213.381 337.877,227.663 338.100,226.302 337.932 C 225.962 337.890,224.016 337.697,221.977 337.503 C 199.216 335.337,177.185 326.889,158.959 313.340 C 157.696 312.402,156.564 311.574,156.443 311.500 C 156.269 311.393,156.222 312.258,156.222 315.599 M314.644 326.920 C 314.644 330.949,314.667 332.597,314.695 330.583 C 314.724 328.568,314.724 325.271,314.695 323.257 C 314.667 321.242,314.644 322.891,314.644 326.920 M90.115 344.395 C 90.494 344.784,90.844 345.102,90.892 345.102 C 90.941 345.102,90.670 344.784,90.291 344.395 C 89.912 344.007,89.562 343.689,89.514 343.689 C 89.465 343.689,89.736 344.007,90.115 344.395 M100.309 349.283 C 100.479 349.328,100.757 349.328,100.927 349.283 C 101.097 349.239,100.958 349.202,100.618 349.202 C 100.278 349.202,100.139 349.239,100.309 349.283 " stroke="none" fill="#3c9f9c" fill-rule="evenodd"></path><path id="path4" d="M313.954 18.759 C 314.038 18.977,315.093 19.874,315.093 19.726 C 315.093 19.696,314.815 19.409,314.475 19.089 C 314.135 18.769,313.901 18.620,313.954 18.759 M227.449 84.307 C 216.903 84.938,207.126 86.646,197.649 89.515 C 196.660 89.815,195.574 90.140,195.234 90.238 C 174.476 96.256,151.690 111.804,136.167 130.542 C 106.328 166.563,98.859 218.857,117.541 260.955 C 118.136 262.297,118.623 263.434,118.623 263.483 C 118.623 264.780,127.208 279.690,130.958 284.907 C 140.910 298.749,155.144 311.890,169.109 320.125 C 189.749 332.298,210.291 337.926,234.157 337.945 C 242.753 337.952,243.395 337.920,250.044 337.144 C 282.819 333.317,314.025 315.488,334.676 288.791 C 335.765 287.383,336.985 285.846,337.386 285.374 C 337.787 284.903,338.197 284.377,338.298 284.205 C 338.823 283.312,339.871 281.811,340.005 281.759 C 340.090 281.727,340.159 281.600,340.159 281.477 C 340.159 281.355,340.322 281.066,340.522 280.836 C 340.721 280.606,341.092 280.038,341.344 279.573 C 341.597 279.109,341.870 278.729,341.952 278.729 C 342.034 278.729,342.101 278.580,342.101 278.398 C 342.101 278.215,342.226 277.962,342.378 277.836 C 342.531 277.709,342.821 277.282,343.022 276.887 C 343.223 276.493,343.574 275.924,343.803 275.623 C 344.032 275.323,344.219 275.004,344.219 274.914 C 344.219 274.824,344.417 274.459,344.660 274.102 C 344.903 273.744,345.102 273.355,345.102 273.236 C 345.102 273.117,345.211 272.894,345.345 272.741 C 345.479 272.588,345.872 271.931,346.219 271.282 C 346.566 270.632,346.929 269.957,347.026 269.781 C 347.386 269.125,349.850 263.934,350.488 262.489 C 350.853 261.664,351.378 260.488,351.657 259.877 C 351.935 259.266,352.162 258.685,352.162 258.586 C 352.162 258.487,352.361 257.972,352.604 257.442 C 352.846 256.911,353.045 256.375,353.045 256.250 C 353.045 256.126,353.240 255.619,353.479 255.124 C 353.717 254.630,353.964 253.999,354.027 253.723 C 354.130 253.274,354.452 252.309,355.432 249.515 C 355.602 249.029,355.842 248.195,355.966 247.661 C 356.090 247.127,356.397 246.100,356.648 245.379 C 356.899 244.659,357.105 243.908,357.105 243.712 C 357.105 243.515,357.306 242.696,357.551 241.891 C 357.797 241.086,358.106 239.851,358.239 239.146 C 358.372 238.441,358.616 237.189,358.782 236.364 C 359.619 232.207,359.948 230.286,360.115 228.597 C 360.215 227.577,360.371 226.267,360.461 225.684 C 361.546 218.658,361.497 203.453,360.364 195.897 C 360.222 194.951,360.106 193.875,360.106 193.506 C 360.106 193.137,359.869 191.647,359.578 190.195 C 359.288 188.743,359.050 187.355,359.049 187.110 C 359.048 186.865,358.848 185.882,358.605 184.925 C 358.363 183.968,358.164 183.024,358.164 182.826 C 358.164 181.729,354.431 169.215,353.456 167.046 C 353.230 166.542,353.045 166.041,353.045 165.931 C 353.045 165.822,352.846 165.298,352.604 164.767 C 352.361 164.237,352.162 163.721,352.162 163.621 C 352.162 163.522,351.924 162.960,351.633 162.373 C 351.342 161.786,351.103 161.227,351.103 161.132 C 351.103 161.036,350.855 160.429,350.552 159.782 C 350.249 159.135,349.801 158.169,349.557 157.635 C 349.039 156.504,348.691 155.780,348.367 155.163 C 348.240 154.921,347.830 154.107,347.457 153.355 C 347.084 152.603,346.526 151.531,346.217 150.972 C 345.908 150.413,345.461 149.598,345.222 149.162 C 343.858 146.657,343.450 145.987,343.292 145.985 C 343.219 145.985,343.160 145.837,343.160 145.658 C 343.160 145.479,342.993 145.141,342.790 144.908 C 342.586 144.675,342.296 144.245,342.145 143.954 C 341.993 143.663,341.733 143.226,341.566 142.983 C 340.760 141.813,339.513 139.909,339.276 139.488 C 339.131 139.229,338.921 138.937,338.810 138.838 C 338.699 138.739,338.412 138.340,338.172 137.950 C 337.932 137.560,337.606 137.133,337.447 137.001 C 337.288 136.870,337.158 136.662,337.158 136.540 C 337.158 136.418,337.036 136.217,336.886 136.093 C 336.736 135.968,336.188 135.264,335.667 134.527 C 335.147 133.789,334.450 132.908,334.119 132.568 C 333.788 132.229,332.889 131.196,332.121 130.274 C 310.129 103.863,280.384 88.119,245.896 84.634 C 243.310 84.372,230.231 84.141,227.449 84.307 M241.924 108.388 C 252.275 109.127,262.973 111.558,272.198 115.268 C 273.217 115.678,274.444 116.169,274.924 116.359 C 301.061 126.736,324.257 152.580,332.804 180.847 C 350.840 240.492,312.888 302.183,251.696 312.691 C 195.879 322.276,142.658 284.793,132.919 229.038 C 121.337 162.729,174.764 103.594,241.924 108.388 M251.898 122.728 C 267.585 130.159,279.679 139.636,288.879 151.708 C 289.462 152.473,290.137 153.327,290.380 153.606 L 290.821 154.114 297.608 154.065 L 304.395 154.016 302.745 152.074 C 295.643 143.716,285.357 135.607,275.552 130.636 C 271.684 128.675,269.583 127.764,264.519 125.852 C 262.080 124.931,258.192 123.813,254.416 122.947 C 251.349 122.243,250.767 122.193,251.898 122.728 M309.188 214.872 C 309.151 214.993,309.072 216.181,309.013 217.512 C 308.081 238.598,298.363 261.043,283.156 277.229 C 274.495 286.448,261.389 295.765,251.735 299.565 C 250.146 300.191,252.670 299.775,256.752 298.739 C 260.244 297.853,264.218 296.571,267.343 295.322 C 268.120 295.011,269.153 294.600,269.638 294.408 C 273.194 293.001,280.008 289.317,284.025 286.630 C 308.153 270.489,322.576 245.438,324.528 216.284 L 324.638 214.651 316.947 214.651 C 310.948 214.651,309.241 214.700,309.188 214.872 M342.895 340.028 C 342.312 340.618,342.034 340.968,342.277 340.807 C 342.851 340.425,344.339 338.918,344.122 338.940 C 344.029 338.949,343.477 339.438,342.895 340.028 M339.955 343.012 C 339.436 343.513,339.170 343.834,339.365 343.725 C 339.749 343.510,341.168 342.101,341.001 342.101 C 340.944 342.101,340.474 342.511,339.955 343.012 " stroke="none" fill="#73c3cb" fill-rule="evenodd"></path></g></svg>