<svg color="white" height="512pt" viewBox="0 -51 512 512" width="512pt" xmlns="http://www.w3.org/2000/svg"><path d="m204 400c0 5.523438-4.476562 10-10 10s-10-4.476562-10-10 4.476562-10 10-10 10 4.476562 10 10zm0 0"/><path d="m72 410h77c5.523438 0 10-4.476562 10-10s-4.476562-10-10-10h-77c-28.1875 0-52-22.898438-52-50s23.8125-50 52-50c13.351562 0 25.910156 5.199219 35.363281 14.644531 3.902344 3.902344 10.234375 3.902344 14.140625-.007812 3.902344-3.90625 3.902344-10.238281-.007812-14.140625-3.039063-3.039063-6.320313-5.75-9.785156-8.144532.183593-.753906.289062-1.539062.289062-2.351562 0-43.363281 37.550781-80 82-80 44.867188 0 82 36.128906 82 80 0 .8125.109375 1.597656.289062 2.351562-3.460937 2.394532-6.742187 5.105469-9.785156 8.144532-3.90625 3.902344-3.910156 10.234375-.007812 14.140625s10.230468 3.914062 14.144531.007812c9.449219-9.445312 22.007813-14.644531 35.359375-14.644531 14.636719 0 28.496094 6.386719 38.015625 17.515625 7.726563 9.046875 11.984375 20.582031 11.984375 32.484375 0 27.570312-22.429688 50-50 50h-77c-5.523438 0-10 4.476562-10 10s4.476562 10 10 10h77c38.597656 0 70-31.402344 70-70 0-12.34375-3.277344-24.402344-9.375-34.980469 8.570312-4.515625 16.582031-9.964843 23.953125-16.296875l35.632813 35.628906c3.902343 3.90625 10.234374 3.90625 14.140624 0s3.90625-10.238281 0-14.140624l-35.628906-35.628907c18.074219-21.027343 28.808594-46.9375 30.898438-74.582031h56.378906c5.523438 0 10-4.476562 10-10s-4.476562-10-10-10h-56.378906c-2.089844-27.652344-12.824219-53.566406-30.898438-74.582031l35.628906-35.628907c3.90625-3.902343 3.90625-10.234374 0-14.140624s-10.234374-3.90625-14.144531 0l-35.625 35.625c-21.019531-18.070313-46.933593-28.804688-74.582031-30.894532v-50.378906c0-5.523438-4.480469-10-10-10-5.523438 0-10 4.476562-10 10v50.378906c-27.652344 2.089844-53.566406 12.824219-74.585938 30.894532l-35.625-35.625c-3.902343-3.90625-10.234374-3.90625-14.140624 0s-3.90625 10.238281 0 14.144531l35.625 35.625c-18.132813 21.09375-28.882813 47.109375-30.921876 74.867187-48.21875 3.578125-88.882812 41.433594-93.84375 89.714844h-20.507812c-38.296875 0-72 30.976562-72 70 0 38.960938 33.636719 70 72 70zm291.964844-120.988281c-12.925782-12.160157-30.027344-19.011719-47.964844-19.011719h-20.515625c-4.78125-46.109375-42.21875-83.582031-89.097656-89.238281 4.644531-56.191407 51.773437-100.761719 109.613281-100.761719 60.777344 0 110 49.183594 110 110 0 44.101562-25.738281 81.417969-62.035156 99.011719zm0 0"/></svg>